<svg width="190" height="35" viewBox="0 0 190 35" fill="none" xmlns="http://www.w3.org/2000/svg">
<path d="M2.834 0.561999V11.056H7.82L7.55 13H0.458V0.561999H2.834ZM13.56 0.291999C14.676 0.291999 15.642 0.543999 16.458 1.048C17.274 1.552 17.898 2.29 18.33 3.262C18.774 4.234 18.996 5.404 18.996 6.772C18.996 8.128 18.774 9.292 18.33 10.264C17.886 11.236 17.256 11.98 16.44 12.496C15.624 13.012 14.664 13.27 13.56 13.27C12.444 13.27 11.478 13.018 10.662 12.514C9.84603 12.01 9.21603 11.272 8.77203 10.3C8.32803 9.328 8.10603 8.158 8.10603 6.79C8.10603 5.446 8.32803 4.288 8.77203 3.316C9.21603 2.332 9.84603 1.582 10.662 1.066C11.49 0.549999 12.456 0.291999 13.56 0.291999ZM13.56 2.11C12.6 2.11 11.868 2.488 11.364 3.244C10.86 3.988 10.608 5.17 10.608 6.79C10.608 9.898 11.592 11.452 13.56 11.452C14.52 11.452 15.246 11.08 15.738 10.336C16.242 9.592 16.494 8.404 16.494 6.772C16.494 5.152 16.242 3.97 15.738 3.226C15.246 2.482 14.52 2.11 13.56 2.11ZM26.2573 0.291999C27.0733 0.291999 27.7933 0.417999 28.4173 0.669999C29.0533 0.909999 29.6533 1.27 30.2173 1.75L28.9393 3.082C28.4953 2.734 28.0753 2.482 27.6793 2.326C27.2953 2.17 26.8453 2.092 26.3293 2.092C25.3693 2.092 24.5833 2.476 23.9713 3.244C23.3593 4.012 23.0533 5.188 23.0533 6.772C23.0533 8.428 23.2933 9.622 23.7733 10.354C24.2653 11.086 25.0093 11.452 26.0053 11.452C26.7613 11.452 27.4213 11.29 27.9853 10.966V7.726H26.1133L25.8613 5.962H30.3253V12.046C28.9813 12.862 27.5533 13.27 26.0413 13.27C24.2653 13.27 22.9033 12.718 21.9553 11.614C21.0193 10.51 20.5513 8.896 20.5513 6.772C20.5513 5.416 20.8033 4.252 21.3073 3.28C21.8233 2.296 22.5133 1.552 23.3773 1.048C24.2413 0.543999 25.2013 0.291999 26.2573 0.291999ZM35.0899 0.561999V13H32.7139V0.561999H35.0899ZM41.5869 0.291999C42.4629 0.291999 43.2249 0.417999 43.8729 0.669999C44.5209 0.921999 45.1269 1.306 45.6909 1.822L44.5209 3.172C44.0769 2.8 43.6269 2.53 43.1709 2.362C42.7269 2.194 42.2469 2.11 41.7309 2.11C41.1549 2.11 40.6869 2.242 40.3269 2.506C39.9789 2.758 39.8049 3.118 39.8049 3.586C39.8049 3.898 39.8709 4.156 40.0029 4.36C40.1469 4.564 40.3989 4.756 40.7589 4.936C41.1189 5.116 41.6529 5.314 42.3609 5.53C43.5849 5.914 44.5029 6.394 45.1149 6.97C45.7389 7.534 46.0509 8.362 46.0509 9.454C46.0509 10.198 45.8589 10.858 45.4749 11.434C45.1029 12.01 44.5629 12.46 43.8549 12.784C43.1469 13.108 42.3069 13.27 41.3349 13.27C40.3869 13.27 39.5349 13.12 38.7789 12.82C38.0349 12.508 37.3929 12.088 36.8529 11.56L38.0769 10.192C38.5569 10.6 39.0549 10.912 39.5709 11.128C40.0869 11.332 40.6569 11.434 41.2809 11.434C41.9649 11.434 42.5169 11.272 42.9369 10.948C43.3569 10.624 43.5669 10.168 43.5669 9.58C43.5669 9.22 43.4949 8.926 43.3509 8.698C43.2069 8.458 42.9609 8.248 42.6129 8.068C42.2649 7.876 41.7609 7.678 41.1009 7.474C39.7809 7.066 38.8269 6.574 38.2389 5.998C37.6509 5.422 37.3569 4.666 37.3569 3.73C37.3569 3.046 37.5369 2.446 37.8969 1.93C38.2569 1.414 38.7549 1.012 39.3909 0.723999C40.0389 0.435999 40.7709 0.291999 41.5869 0.291999ZM55.6824 0.561999L55.4304 2.452H52.1904V13H49.7964V2.452H46.4484V0.561999H55.6824ZM59.6113 0.561999V13H57.2353V0.561999H59.6113ZM67.2784 0.291999C68.0344 0.291999 68.6944 0.399999 69.2584 0.616C69.8224 0.832 70.3744 1.162 70.9144 1.606L69.7084 3.01C68.9764 2.422 68.2084 2.128 67.4044 2.128C66.4804 2.128 65.7364 2.5 65.1724 3.244C64.6204 3.988 64.3444 5.158 64.3444 6.754C64.3444 8.314 64.6204 9.472 65.1724 10.228C65.7244 10.984 66.4684 11.362 67.4044 11.362C67.8964 11.362 68.3344 11.278 68.7184 11.11C69.1024 10.93 69.5104 10.678 69.9424 10.354L71.0584 11.758C70.6384 12.19 70.1044 12.55 69.4564 12.838C68.8204 13.126 68.1064 13.27 67.3144 13.27C66.2344 13.27 65.2804 13.018 64.4524 12.514C63.6244 12.01 62.9824 11.272 62.5264 10.3C62.0704 9.316 61.8424 8.134 61.8424 6.754C61.8424 5.398 62.0764 4.234 62.5444 3.262C63.0244 2.29 63.6724 1.552 64.4884 1.048C65.3164 0.543999 66.2464 0.291999 67.2784 0.291999ZM76.163 0.291999C77.039 0.291999 77.801 0.417999 78.449 0.669999C79.097 0.921999 79.703 1.306 80.267 1.822L79.097 3.172C78.653 2.8 78.203 2.53 77.747 2.362C77.303 2.194 76.823 2.11 76.307 2.11C75.731 2.11 75.263 2.242 74.903 2.506C74.555 2.758 74.381 3.118 74.381 3.586C74.381 3.898 74.447 4.156 74.579 4.36C74.723 4.564 74.975 4.756 75.335 4.936C75.695 5.116 76.229 5.314 76.937 5.53C78.161 5.914 79.079 6.394 79.691 6.97C80.315 7.534 80.627 8.362 80.627 9.454C80.627 10.198 80.435 10.858 80.051 11.434C79.679 12.01 79.139 12.46 78.431 12.784C77.723 13.108 76.883 13.27 75.911 13.27C74.963 13.27 74.111 13.12 73.355 12.82C72.611 12.508 71.969 12.088 71.429 11.56L72.653 10.192C73.133 10.6 73.631 10.912 74.147 11.128C74.663 11.332 75.233 11.434 75.857 11.434C76.541 11.434 77.093 11.272 77.513 10.948C77.933 10.624 78.143 10.168 78.143 9.58C78.143 9.22 78.071 8.926 77.927 8.698C77.783 8.458 77.537 8.248 77.189 8.068C76.841 7.876 76.337 7.678 75.677 7.474C74.357 7.066 73.403 6.574 72.815 5.998C72.227 5.422 71.933 4.666 71.933 3.73C71.933 3.046 72.113 2.446 72.473 1.93C72.833 1.414 73.331 1.012 73.967 0.723999C74.615 0.435999 75.347 0.291999 76.163 0.291999ZM90.7353 0.291999C91.6113 0.291999 92.3733 0.417999 93.0213 0.669999C93.6693 0.921999 94.2753 1.306 94.8393 1.822L93.6693 3.172C93.2253 2.8 92.7753 2.53 92.3193 2.362C91.8753 2.194 91.3953 2.11 90.8793 2.11C90.3033 2.11 89.8353 2.242 89.4753 2.506C89.1273 2.758 88.9533 3.118 88.9533 3.586C88.9533 3.898 89.0193 4.156 89.1513 4.36C89.2953 4.564 89.5473 4.756 89.9073 4.936C90.2673 5.116 90.8013 5.314 91.5093 5.53C92.7333 5.914 93.6513 6.394 94.2633 6.97C94.8873 7.534 95.1993 8.362 95.1993 9.454C95.1993 10.198 95.0073 10.858 94.6233 11.434C94.2513 12.01 93.7113 12.46 93.0033 12.784C92.2953 13.108 91.4553 13.27 90.4833 13.27C89.5353 13.27 88.6833 13.12 87.9273 12.82C87.1833 12.508 86.5413 12.088 86.0013 11.56L87.2253 10.192C87.7053 10.6 88.2033 10.912 88.7193 11.128C89.2353 11.332 89.8053 11.434 90.4293 11.434C91.1133 11.434 91.6653 11.272 92.0853 10.948C92.5053 10.624 92.7153 10.168 92.7153 9.58C92.7153 9.22 92.6433 8.926 92.4993 8.698C92.3553 8.458 92.1093 8.248 91.7613 8.068C91.4133 7.876 90.9093 7.678 90.2493 7.474C88.9293 7.066 87.9753 6.574 87.3873 5.998C86.7993 5.422 86.5053 4.666 86.5053 3.73C86.5053 3.046 86.6853 2.446 87.0453 1.93C87.4053 1.414 87.9033 1.012 88.5393 0.723999C89.1873 0.435999 89.9193 0.291999 90.7353 0.291999ZM105.784 0.561999L101.788 8.284V13H99.376V8.302L95.38 0.561999H98.008L100.636 6.34L103.264 0.561999H105.784ZM110.44 0.291999C111.316 0.291999 112.078 0.417999 112.726 0.669999C113.374 0.921999 113.98 1.306 114.544 1.822L113.374 3.172C112.93 2.8 112.48 2.53 112.024 2.362C111.58 2.194 111.1 2.11 110.584 2.11C110.008 2.11 109.54 2.242 109.18 2.506C108.832 2.758 108.658 3.118 108.658 3.586C108.658 3.898 108.724 4.156 108.856 4.36C109 4.564 109.252 4.756 109.612 4.936C109.972 5.116 110.506 5.314 111.214 5.53C112.438 5.914 113.356 6.394 113.968 6.97C114.592 7.534 114.904 8.362 114.904 9.454C114.904 10.198 114.712 10.858 114.328 11.434C113.956 12.01 113.416 12.46 112.708 12.784C112 13.108 111.16 13.27 110.188 13.27C109.24 13.27 108.388 13.12 107.632 12.82C106.888 12.508 106.246 12.088 105.706 11.56L106.93 10.192C107.41 10.6 107.908 10.912 108.424 11.128C108.94 11.332 109.51 11.434 110.134 11.434C110.818 11.434 111.37 11.272 111.79 10.948C112.21 10.624 112.42 10.168 112.42 9.58C112.42 9.22 112.348 8.926 112.204 8.698C112.06 8.458 111.814 8.248 111.466 8.068C111.118 7.876 110.614 7.678 109.954 7.474C108.634 7.066 107.68 6.574 107.092 5.998C106.504 5.422 106.21 4.666 106.21 3.73C106.21 3.046 106.39 2.446 106.75 1.93C107.11 1.414 107.608 1.012 108.244 0.723999C108.892 0.435999 109.624 0.291999 110.44 0.291999ZM124.536 0.561999L124.284 2.452H121.044V13H118.65V2.452H115.302V0.561999H124.536ZM133.307 0.561999L133.055 2.326H128.465V5.8H132.461V7.564H128.465V11.218H133.379V13H126.089V0.561999H133.307ZM147.424 13H145.102L144.778 7.798C144.67 5.938 144.616 4.462 144.616 3.37V2.722L142.348 11.65H140.098L137.686 2.704C137.71 3.496 137.722 4.096 137.722 4.504C137.722 5.596 137.686 6.718 137.614 7.87L137.308 13H135.004L135.994 0.561999H139.054L141.268 9.274L143.356 0.561999H146.452L147.424 13ZM153.032 0.291999C153.908 0.291999 154.67 0.417999 155.318 0.669999C155.966 0.921999 156.572 1.306 157.136 1.822L155.966 3.172C155.522 2.8 155.072 2.53 154.616 2.362C154.172 2.194 153.692 2.11 153.176 2.11C152.6 2.11 152.132 2.242 151.772 2.506C151.424 2.758 151.25 3.118 151.25 3.586C151.25 3.898 151.316 4.156 151.448 4.36C151.592 4.564 151.844 4.756 152.204 4.936C152.564 5.116 153.098 5.314 153.806 5.53C155.03 5.914 155.948 6.394 156.56 6.97C157.184 7.534 157.496 8.362 157.496 9.454C157.496 10.198 157.304 10.858 156.92 11.434C156.548 12.01 156.008 12.46 155.3 12.784C154.592 13.108 153.752 13.27 152.78 13.27C151.832 13.27 150.98 13.12 150.224 12.82C149.48 12.508 148.838 12.088 148.298 11.56L149.522 10.192C150.002 10.6 150.5 10.912 151.016 11.128C151.532 11.332 152.102 11.434 152.726 11.434C153.41 11.434 153.962 11.272 154.382 10.948C154.802 10.624 155.012 10.168 155.012 9.58C155.012 9.22 154.94 8.926 154.796 8.698C154.652 8.458 154.406 8.248 154.058 8.068C153.71 7.876 153.206 7.678 152.546 7.474C151.226 7.066 150.272 6.574 149.684 5.998C149.096 5.422 148.802 4.666 148.802 3.73C148.802 3.046 148.982 2.446 149.342 1.93C149.702 1.414 150.2 1.012 150.836 0.723999C151.484 0.435999 152.216 0.291999 153.032 0.291999ZM166.398 0.561999V11.056H171.384L171.114 13H164.022V0.561999H166.398ZM175.504 0.561999V11.056H180.49L180.22 13H173.128V0.561999H175.504ZM186.212 0.291999C186.968 0.291999 187.628 0.399999 188.192 0.616C188.756 0.832 189.308 1.162 189.848 1.606L188.642 3.01C187.91 2.422 187.142 2.128 186.338 2.128C185.414 2.128 184.67 2.5 184.106 3.244C183.554 3.988 183.278 5.158 183.278 6.754C183.278 8.314 183.554 9.472 184.106 10.228C184.658 10.984 185.402 11.362 186.338 11.362C186.83 11.362 187.268 11.278 187.652 11.11C188.036 10.93 188.444 10.678 188.876 10.354L189.992 11.758C189.572 12.19 189.038 12.55 188.39 12.838C187.754 13.126 187.04 13.27 186.248 13.27C185.168 13.27 184.214 13.018 183.386 12.514C182.558 12.01 181.916 11.272 181.46 10.3C181.004 9.316 180.776 8.134 180.776 6.754C180.776 5.398 181.01 4.234 181.478 3.262C181.958 2.29 182.606 1.552 183.422 1.048C184.25 0.543999 185.18 0.291999 186.212 0.291999ZM7.262 35V29.438H2.834V35H0.458V22.562H2.834V27.548H7.262V22.562H9.656V35H7.262ZM16.4398 30.014H14.9278V35H12.5518V22.562H16.2598C19.5478 22.562 21.1918 23.78 21.1918 26.216C21.1918 27.044 20.9878 27.728 20.5798 28.268C20.1718 28.808 19.5358 29.246 18.6718 29.582L21.9298 35H19.1938L16.4398 30.014ZM14.9278 28.304H16.4038C17.1598 28.304 17.7298 28.142 18.1138 27.818C18.5098 27.482 18.7078 26.948 18.7078 26.216C18.7078 25.544 18.5038 25.058 18.0958 24.758C17.6998 24.446 17.0698 24.29 16.2058 24.29H14.9278V28.304Z" fill="black"/>
</svg>
