<svg width="60" height="61" viewBox="0 0 60 61" fill="none" xmlns="http://www.w3.org/2000/svg">
<path d="M50.2631 34.16H42.3811V26.2264C42.3811 25.6597 41.9174 25.196 41.3508 25.196H31.2706C30.704 25.196 30.2403 25.6597 30.2403 26.2264C30.2403 26.7931 30.704 27.2567 31.2706 27.2567H40.3376V52.9464H24.6422L24.6078 52.7575C24.0411 49.9412 21.534 47.8977 18.6662 47.8977C15.7985 47.8977 13.2913 49.9412 12.7246 52.7575L12.6903 52.9464H7.07497V31.3952C7.07497 30.8285 6.61132 30.3649 6.04463 30.3649C5.47795 30.3649 5.0143 30.8285 5.0143 31.3952V53.9595C5.0143 54.5262 5.47795 54.9899 6.04463 54.9899H12.6731L12.7075 55.1788C13.2741 57.995 15.7813 60.0385 18.6491 60.0385C21.5168 60.0385 24.024 57.995 24.5906 55.1788L24.625 54.9899H42.9134L42.9478 55.1788C43.5145 57.995 46.0216 60.0385 48.8894 60.0385C51.7571 60.0385 54.2643 57.995 54.831 55.1788L54.8653 54.9899H58.9695C59.5362 54.9899 59.9998 54.5262 59.9998 53.9595V43.9138C60.0341 38.5389 55.6552 34.16 50.2631 34.16ZM18.6662 57.995C16.451 57.995 14.6479 56.1919 14.6479 53.9767C14.6479 51.7615 16.451 49.9584 18.6662 49.9584C20.8814 49.9584 22.6845 51.7615 22.6845 53.9767C22.6845 56.1919 20.8814 57.995 18.6662 57.995ZM48.9237 57.995C46.7085 57.995 44.9054 56.1919 44.9054 53.9767C44.9054 51.7615 46.7085 49.9584 48.9237 49.9584C51.1389 49.9584 52.942 51.7615 52.942 53.9767C52.942 56.1919 51.1389 57.995 48.9237 57.995ZM57.9907 52.9464H54.9168L54.8825 52.7575C54.3158 49.9412 51.8086 47.8977 48.9409 47.8977C46.0731 47.8977 43.566 49.9412 42.9993 52.7575L42.9649 52.9464H42.4154V36.2034H50.2975C54.5562 36.2034 58.025 39.6722 58.025 43.931V52.9464H57.9907Z" fill="#FF2B2A"/>
<path d="M29.7767 7.43987C29.7767 7.4227 29.7767 7.4227 29.7767 7.40553V7.37118C29.7767 7.33684 29.7767 7.31967 29.7595 7.28532C29.7423 7.18229 29.708 7.09643 29.6736 7.01057C29.6565 6.97622 29.6393 6.94188 29.6221 6.92471C29.5706 6.83884 29.5191 6.77015 29.4504 6.70147L29.4332 6.68429C29.416 6.66712 29.3989 6.64995 29.3817 6.63278C29.3645 6.6156 29.3645 6.6156 29.3474 6.6156C29.3474 6.6156 29.3302 6.59843 29.313 6.59843L29.2958 6.58126C29.2958 6.58126 29.2787 6.58126 29.2787 6.56409L29.2272 6.54692C29.21 6.52974 29.1928 6.52974 29.1756 6.51257L15.3176 0.0901542C15.0429 -0.0300514 14.7338 -0.0300514 14.459 0.0901542L8.39723 2.88923C8.32854 2.9064 8.25985 2.94075 8.19116 2.99226L8.17399 3.00943L0.583856 6.52974C0.515167 6.56409 0.429306 6.6156 0.360617 6.66712H0.343445C0.274756 6.71864 0.223239 6.78733 0.171722 6.83884C0.15455 6.87319 0.137378 6.89036 0.120206 6.92471L0.103033 6.94188C0.0858612 6.97622 0.068689 6.99339 0.068689 7.02774V7.04491C0.0343445 7.13077 0.0171722 7.19946 0 7.28532V7.30249C0 7.33684 0 7.37118 0 7.4227V7.47422V22.311C0 22.706 0.240411 23.0666 0.601028 23.2383L14.459 29.6779C14.5964 29.7294 14.7338 29.7638 14.8712 29.7638H14.9055C15.0429 29.7638 15.1974 29.7294 15.3348 29.6779L29.1928 23.2383C29.5534 23.0666 29.7938 22.706 29.7938 22.311L29.7767 7.43987ZM14.8883 2.13365L26.325 7.43987L22.4269 9.26013L22.3239 9.20861L11.1448 3.88522L14.8883 2.13365ZM13.8408 27.1536L2.02632 21.6585V9.05406L13.8408 14.5492V27.1536ZM14.8712 12.7633L3.43445 7.45704L8.7235 5.00141L20.0057 10.3763L14.8712 12.7633ZM27.7332 21.6585L27.5958 21.7272L15.9187 27.1536V14.5492L21.431 11.9905V16.1462C21.431 16.7129 21.8946 17.1765 22.4613 17.1765C23.028 17.1765 23.4916 16.7129 23.4916 16.1462V11.0289L27.7503 9.05406V21.6585H27.7332Z" fill="#FF2B2A"/>
</svg>
