<svg width="61" height="52" viewBox="0 0 61 52" fill="none" xmlns="http://www.w3.org/2000/svg">
<path d="M42.7404 19.2192C41.7457 17.4866 39.8687 16.4118 37.8634 16.4118C35.858 16.4118 33.9971 17.4866 33.0024 19.2192C32.842 19.492 32.7938 19.8289 32.8741 20.1337C32.9543 20.4385 33.1628 20.7112 33.4356 20.8717C33.612 20.984 33.8206 21.0321 34.0452 21.0321C34.4783 21.0321 34.8794 20.8075 35.088 20.4225C35.6655 19.4278 36.7243 18.8182 37.8794 18.8182C39.0184 18.8182 40.0933 19.4278 40.6708 20.4225C40.8794 20.7914 41.2805 21.0321 41.7136 21.0321C41.9222 21.0321 42.1307 20.984 42.3233 20.8717C42.596 20.7112 42.8045 20.4545 42.8848 20.1337C42.9489 19.8289 42.9008 19.508 42.7404 19.2192ZM27.5639 19.2192C26.5692 17.4866 24.6922 16.4118 22.6869 16.4118C20.6815 16.4118 18.8206 17.4866 17.8259 19.2192C17.489 19.7968 17.6976 20.5348 18.2591 20.8556C18.4356 20.9679 18.6441 21.016 18.8527 21.016C19.2858 21.016 19.6869 20.7914 19.8954 20.4064C20.473 19.4118 21.5318 18.8021 22.6869 18.8021C23.8259 18.8021 24.9008 19.4118 25.4783 20.4064C25.6869 20.7754 26.088 21 26.5211 21C26.7297 21 26.9382 20.9519 27.1307 20.8396C27.4035 20.6791 27.612 20.4225 27.6922 20.1016C27.7564 19.8289 27.7243 19.508 27.5639 19.2192ZM35.2644 33.3048C35.1842 33 34.9757 32.7273 34.7029 32.5668C34.5265 32.4545 34.3179 32.4064 34.0933 32.4064C33.6602 32.4064 33.2591 32.631 33.0505 33.016C32.473 34.0107 31.4142 34.6203 30.2591 34.6203C29.12 34.6203 28.0452 34.0107 27.4676 33.016C27.2591 32.6471 26.858 32.4064 26.4249 32.4064C26.2163 32.4064 26.0077 32.4545 25.8152 32.5668C25.2377 32.9037 25.0452 33.6417 25.3821 34.2032C26.3767 35.9358 28.2537 37.0107 30.2591 37.0107C32.2644 37.0107 34.1254 35.9358 35.12 34.2032C35.3126 33.9305 35.3607 33.6096 35.2644 33.3048ZM57.3393 16.2834C57.211 16.2513 57.0987 16.2193 56.9703 16.2193C56.4569 16.2193 56.0077 16.5561 55.8313 17.0535C55.6227 17.6952 55.9596 18.369 56.5853 18.5615C57.3233 18.8021 57.8206 19.492 57.8206 20.2781V26.8556C57.8206 27.8984 57.0345 28.7326 56.0719 28.7326H53.8259L53.8741 28.4438C54.1307 27.016 54.2591 25.5401 54.2591 24.0642C54.2591 18.8824 52.6388 13.9572 49.5585 9.7861C48.0826 7.78075 46.3019 6.03208 44.2805 4.57219C42.243 3.09626 39.9971 1.95722 37.6067 1.18717C37.5585 1.17112 37.5265 1.15508 37.5104 1.12299C35.6815 0.545455 33.6602 0.192513 31.1414 0C31.1254 0 31.0933 0.0160428 31.0773 0.0160428C31.0612 0.0160428 31.0612 0.0160428 31.0452 0.0160428H31.0131H30.965H30.9489C30.9329 0.0160428 30.9329 0.0160428 30.9168 0.0160428H30.8848C30.8687 0.0160428 30.8687 0.0160428 30.8527 0.0160428H30.8045H30.7885H30.7243H30.7083H30.6922H30.6602C30.6281 0.0160428 30.596 0 30.5799 0H30.2591C17.0719 0.0481283 6.3393 10.8289 6.3393 24.0642V28.7647H4.46229C3.46764 28.7647 2.64946 27.8984 2.64946 26.8877V20.3102C2.64946 19.5401 3.16283 18.8342 3.91684 18.5936C4.22165 18.4973 4.47834 18.2888 4.62272 18C4.76711 17.7112 4.79919 17.3904 4.70293 17.0856C4.54251 16.5882 4.07727 16.2513 3.54785 16.2513C3.41951 16.2513 3.29117 16.2674 3.17887 16.3155C1.41416 16.861 0.243042 18.4652 0.243042 20.2941V26.8717C0.243042 27.9946 0.69224 29.0695 1.49438 29.8877C2.29652 30.7059 3.35534 31.1551 4.47834 31.1551H7.49438C8.15213 31.1551 8.76176 30.5455 8.76176 29.8877V24.0642C8.76176 18.3048 10.9917 12.8824 15.0666 8.79144C19.1094 4.70053 24.5318 2.45455 30.2751 2.45455H30.3553C30.3874 2.45455 30.4195 2.45455 30.4356 2.47059C30.4356 2.47059 30.4356 2.47059 30.4516 2.47059H30.4676C31.8794 2.48663 33.3072 2.63102 34.6869 2.91979L35.104 3L34.8152 3.30481C30.6922 7.84492 25.0291 10.3476 18.8527 10.3476C18.4516 10.3476 18.0505 10.3316 17.6495 10.3155C17.6174 10.3155 17.6013 10.3155 17.5692 10.3155C16.9275 10.3155 16.4142 10.8128 16.3821 11.4545C16.366 11.7754 16.4783 12.0802 16.6869 12.3209C16.8954 12.5615 17.2003 12.7059 17.5211 12.7219C17.9703 12.754 18.4195 12.754 18.8527 12.754C22.6708 12.754 26.4569 11.8396 29.8259 10.107C32.7457 8.59893 35.4088 6.4492 37.4944 3.88235L37.6067 3.75401L37.7671 3.81818C46.2056 6.94652 51.8848 15.0963 51.8848 24.0802C51.8848 33.5936 45.7885 41.8717 36.7083 44.6791L36.5318 44.7273L36.4356 44.5668C35.6334 43.2353 34.1735 42.4011 32.6495 42.4011H27.9489C25.5104 42.4011 23.5211 44.3743 23.5211 46.8128C23.5211 49.2513 25.5104 51.2246 27.9489 51.2246H32.6495C34.9596 51.2246 36.8527 49.508 37.0452 47.2299L37.0612 47.0695L37.2217 47.0214C41.9061 45.6096 46.1254 42.754 49.1094 38.984C50.9382 36.6738 52.3179 34.1069 53.2003 31.3315L53.2484 31.1711H56.088C58.3821 31.1711 60.243 29.246 60.243 26.8877V20.3102C60.243 18.4652 59.0719 16.8449 57.3393 16.2834ZM32.6334 48.8182H27.9329C26.8259 48.8182 25.9275 47.9198 25.9275 46.8128C25.9275 45.7059 26.8259 44.8075 27.9329 44.8075H32.6334C33.5639 44.8075 34.3821 45.4813 34.5906 46.3957C34.5906 46.4118 34.5906 46.4278 34.6067 46.4438V46.4599C34.6227 46.5882 34.6388 46.6845 34.6388 46.8289C34.6548 47.9198 33.7404 48.8182 32.6334 48.8182Z" fill="white"/>
</svg>
