<svg width="58" height="60" viewBox="0 0 58 60" fill="none" xmlns="http://www.w3.org/2000/svg">
<path d="M3.90233 30.8213C4.1238 30.8582 4.32681 30.8582 4.54829 30.8582C5.52645 30.8582 6.46769 30.5444 7.2613 29.9539C8.221 29.2341 8.8485 28.1636 9.0146 26.9825C9.49445 23.7342 10.731 20.5967 12.632 17.9206C12.6504 17.9022 12.6504 17.8837 12.6504 17.8653C13.3148 16.924 14.0715 16.0566 14.8836 15.2445C16.8214 13.3067 19.1653 11.7379 21.6938 10.6859C24.2407 9.63396 26.9722 9.09874 29.7405 9.09874C31.6415 9.09874 33.524 9.33866 35.3511 9.83697C35.3696 9.83697 35.3696 9.83697 35.388 9.83697C35.6279 9.9108 35.8679 9.96616 36.1078 10.0584C36.9937 10.3353 37.8796 10.6859 38.7101 11.0735C40.1496 11.7564 41.4969 12.5869 42.7335 13.5835L42.9365 13.7496L40.0758 15.5029C39.3929 15.9089 39.0238 16.6656 39.1161 17.4777C39.2084 18.3082 39.7252 18.9911 40.5003 19.2679L53.0134 23.7527C53.604 23.9742 54.2499 23.9188 54.7851 23.5866C55.3204 23.2728 55.671 22.7192 55.7633 22.0917L57.4981 8.96955C57.6458 8.15749 57.2951 7.32697 56.6123 6.84712C55.9294 6.36727 55.0804 6.34881 54.3791 6.7733L51.0201 8.8219L50.9094 8.71116C48.4917 6.3119 45.6864 4.33713 42.5858 2.86066C38.5624 0.996616 34.133 0 29.7221 0C22.5243 0 15.5664 2.60228 10.1035 7.32698C4.65902 12.0332 1.09704 18.5666 0.0450556 25.6906C-0.305606 28.1636 1.42925 30.4706 3.90233 30.8213ZM2.01983 25.9858C2.97954 19.3233 6.32005 13.2328 11.4139 8.8219C16.5077 4.41095 23.0041 1.99323 29.7221 1.99323C33.8377 1.99323 37.9718 2.93448 41.6999 4.68779C44.8743 6.18271 47.6981 8.23131 50.0973 10.7782C50.4111 11.1104 50.9463 11.1842 51.3339 10.9443L55.5603 8.37896L53.7701 21.9071L40.9432 17.2931L45.1327 14.7278C45.3911 14.5617 45.5757 14.2848 45.6126 13.9711C45.6495 13.6573 45.5203 13.362 45.2988 13.1406C43.5824 11.5534 41.663 10.243 39.5591 9.26484C36.5138 7.82528 33.118 7.06859 29.7405 7.06859C26.1232 7.06859 22.5427 7.93602 19.3314 9.56013C19.2945 9.57859 19.2576 9.59705 19.2207 9.63396C17.0983 10.7229 15.1419 12.144 13.4625 13.8234C11.34 15.9459 9.62365 18.4928 8.47938 21.2796C8.0549 22.2947 7.72269 23.3282 7.44585 24.3802L7.50122 24.4171C7.31666 25.1738 7.16902 25.9305 7.05828 26.6872C6.966 27.3516 6.61534 27.9422 6.08012 28.3482C5.5449 28.7542 4.86203 28.9203 4.19762 28.828C3.53321 28.7358 2.94263 28.3851 2.5366 27.8499C2.09366 27.3147 1.92755 26.6503 2.01983 25.9858Z" fill="#FF2B2A"/>
<path d="M53.6409 29.1603C53.4194 29.1234 53.2164 29.1234 52.9949 29.1234C52.0168 29.1234 51.0755 29.4371 50.2819 30.0277C49.3222 30.7475 48.6947 31.8179 48.5101 32.9991C47.7904 37.9822 45.2988 42.5223 41.4969 45.8259C37.695 49.111 32.8411 50.9197 27.8027 50.9197C24.7021 50.9197 21.6015 50.2184 18.8331 48.908C17.3936 48.2252 16.0463 47.3946 14.8097 46.398L14.6067 46.2319L17.4674 44.4786C18.1503 44.0726 18.5194 43.3159 18.4271 42.5038C18.3348 41.6733 17.8181 40.9905 17.0429 40.7136L4.52983 36.2289C3.93925 36.0074 3.29329 36.0628 2.75807 36.395C2.22285 36.7087 1.87219 37.2624 1.77991 37.8899L0.0450598 51.012C-0.102587 51.8241 0.248074 52.6546 0.930941 53.1344C1.61381 53.6143 2.46278 53.6327 3.1641 53.2082L6.54152 51.1596L6.65226 51.2519C9.06997 53.6512 11.8753 55.626 14.9758 57.1024C18.9808 59.0034 23.4102 60 27.8027 60C35.0005 60 41.9583 57.3977 47.4212 52.673C52.8657 47.9483 56.4462 41.4334 57.4797 34.291C57.8303 31.8179 56.0955 29.5109 53.6409 29.1603ZM55.5049 33.9957C55.0251 37.3178 53.9546 40.5106 52.349 43.4266C50.7618 46.3427 48.6578 48.9634 46.1109 51.1596C41.0171 55.5706 34.5206 57.9883 27.8027 57.9883C23.687 57.9883 19.5529 57.0471 15.8248 55.2938C12.6504 53.7988 9.82666 51.7502 7.4274 49.2033C7.11365 48.8711 6.57843 48.7973 6.19086 49.0372L1.96447 51.6026L3.75469 38.0744L16.5815 42.6884L12.392 45.2353C12.1336 45.4014 11.9491 45.6783 11.9122 45.992C11.8753 46.3058 12.0045 46.601 12.2259 46.8225C13.9423 48.4097 15.8617 49.7201 17.9657 50.6982C21.0109 52.1378 24.4068 52.8945 27.7842 52.8945C33.3025 52.8945 38.6363 50.9197 42.7888 47.3208C46.9599 43.7219 49.6729 38.7389 50.4665 33.2759C50.6695 31.8917 51.9429 30.932 53.3271 31.1166C54.7298 31.3381 55.7079 32.6115 55.5049 33.9957Z" fill="#FF2B2A"/>
</svg>
