<svg width="14" height="14" viewBox="0 0 14 14" fill="none" xmlns="http://www.w3.org/2000/svg">
<path d="M5.81939 8.17553C6.67755 9.0645 7.7159 9.75084 8.86151 10.1863L10.4113 8.92696C10.4573 8.89464 10.5118 8.87734 10.5676 8.87734C10.6234 8.87734 10.6778 8.89464 10.7238 8.92696L13.6015 10.8202C13.7107 10.8873 13.8032 10.9794 13.8716 11.0892C13.94 11.1991 13.9825 11.3236 13.9956 11.4531C14.0088 11.5826 13.9923 11.7134 13.9474 11.8352C13.9025 11.9571 13.8305 12.0666 13.7371 12.1552L12.3887 13.5153C12.1956 13.7101 11.9583 13.8531 11.6979 13.9315C11.4375 14.0099 11.1622 14.0212 10.8964 13.9645C8.24577 13.4054 5.8026 12.0962 3.84613 10.1863C1.93309 8.25749 0.60927 5.80322 0.0352662 3.12123C-0.0214379 2.85409 -0.00960299 2.57653 0.069624 2.31543C0.148851 2.05434 0.292783 1.81857 0.487472 1.63097L1.8852 0.254053C1.97169 0.163289 2.07718 0.0936822 2.19375 0.0504448C2.31032 0.00720747 2.43496 -0.00854002 2.55833 0.00438154C2.68171 0.0173031 2.80062 0.0585589 2.90617 0.12506C3.01172 0.19156 3.10117 0.281583 3.16782 0.388387L5.08353 3.28915C5.11657 3.3347 5.13441 3.38989 5.13441 3.44657C5.13441 3.50326 5.11657 3.55844 5.08353 3.60399L3.82147 5.15303C4.25952 6.29945 4.942 7.33192 5.81939 8.17553Z" fill="#282E3E"/>
</svg>
