<svg width="14" height="12" viewBox="0 0 14 12" fill="none" xmlns="http://www.w3.org/2000/svg">
<path d="M14 3.62562V9.32502C14 9.90612 13.7777 10.4652 13.3786 10.8876C12.9795 11.31 12.434 11.5636 11.8538 11.5965L11.725 11.6H2.275C1.6939 11.6001 1.13482 11.3777 0.712438 10.9787C0.290057 10.5796 0.0363991 10.034 0.00350008 9.45382L0 9.32502V3.62562L6.7564 7.16482C6.83156 7.20419 6.91515 7.22476 7 7.22476C7.08485 7.22476 7.16844 7.20419 7.2436 7.16482L14 3.62562ZM2.275 0.400024H11.725C12.2889 0.399957 12.8327 0.609321 13.251 0.987511C13.6693 1.3657 13.9322 1.88576 13.9888 2.44682L7 6.10782L0.0112 2.44682C0.0654664 1.90804 0.310135 1.40629 0.701225 1.03175C1.09231 0.65721 1.60418 0.434455 2.1448 0.403525L2.275 0.400024H11.725H2.275Z" fill="#282E3E"/>
</svg>
